<svg xmlns="http://www.w3.org/2000/svg" xmlns:xlink="http://www.w3.org/1999/xlink" width="500" zoomAndPan="magnify" viewBox="0 0 375 374.999991" height="500" preserveAspectRatio="xMidYMid meet" version="1.0"><defs><g/><clipPath id="69e65d38b6"><path d="M 3 31 L 7 31 L 7 34.558594 L 3 34.558594 Z M 3 31 " clip-rule="nonzero"/></clipPath><clipPath id="071554cbf1"><path d="M 45 9 L 48.921875 9 L 48.921875 13 L 45 13 Z M 45 9 " clip-rule="nonzero"/></clipPath><clipPath id="2a3ff912ff"><path d="M 45 12 L 48.921875 12 L 48.921875 16 L 45 16 Z M 45 12 " clip-rule="nonzero"/></clipPath><clipPath id="372369d88d"><rect x="0" width="49" y="0" height="35"/></clipPath><clipPath id="b335b1e6c5"><path d="M 39 83.4375 L 336 83.4375 L 336 204 L 39 204 Z M 39 83.4375 " clip-rule="nonzero"/></clipPath><clipPath id="41364d418a"><path d="M 0.269531 99.539062 L 374.730469 99.539062 L 374.730469 291.578125 L 0.269531 291.578125 Z M 0.269531 99.539062 " clip-rule="nonzero"/></clipPath><clipPath id="ea24b44acb"><path d="M 77 113.394531 L 374.730469 113.394531 L 374.730469 291.578125 L 77 291.578125 Z M 77 113.394531 " clip-rule="nonzero"/></clipPath><clipPath id="b9501bd883"><path d="M 0.269531 113.769531 L 298 113.769531 L 298 291.578125 L 0.269531 291.578125 Z M 0.269531 113.769531 " clip-rule="nonzero"/></clipPath></defs><g transform="matrix(1, 0, 0, 1, 163, 150)"><g clip-path="url(#372369d88d)"><g clip-path="url(#69e65d38b6)"><g fill="#6d4831" fill-opacity="1"><g transform="translate(4.908764, 31.803523)"><g><path d="M -1.484375 2.421875 L -1.578125 2.34375 C -1.535156 2.15625 -1.441406 1.984375 -1.296875 1.828125 C -1.160156 1.671875 -1.007812 1.539062 -0.84375 1.4375 C -0.675781 1.332031 -0.539062 1.25 -0.4375 1.1875 C -0.132812 1.019531 0.160156 0.851562 0.453125 0.6875 C 0.753906 0.519531 1.054688 0.351562 1.359375 0.1875 C 1.429688 0.132812 1.488281 0.09375 1.53125 0.0625 C 1.582031 0.0390625 1.625 0.0234375 1.65625 0.015625 L 1.765625 0.078125 C 1.691406 0.253906 1.601562 0.410156 1.5 0.546875 C 1.394531 0.691406 1.242188 0.820312 1.046875 0.9375 L -0.78125 1.9375 C -0.988281 2.050781 -1.144531 2.144531 -1.25 2.21875 C -1.351562 2.289062 -1.429688 2.359375 -1.484375 2.421875 Z M -1.484375 2.421875 "/></g></g></g></g><g fill="#6d4831" fill-opacity="1"><g transform="translate(6.027582, 25.31437)"><g><path d="M -0.046875 -1.6875 C -0.234375 -1.875 -0.414062 -2.046875 -0.59375 -2.203125 C -0.78125 -2.367188 -0.960938 -2.523438 -1.140625 -2.671875 L -1.140625 -2.796875 C -1.085938 -2.878906 -1.007812 -2.984375 -0.90625 -3.109375 C -0.800781 -3.234375 -0.6875 -3.363281 -0.5625 -3.5 C -0.445312 -3.632812 -0.335938 -3.75 -0.234375 -3.84375 C -0.128906 -3.945312 -0.0507812 -4.015625 0 -4.046875 L 0.125 -4.046875 C 0.519531 -3.796875 0.785156 -3.582031 0.921875 -3.40625 C 1.066406 -3.238281 1.140625 -3.082031 1.140625 -2.9375 C 1.140625 -2.78125 1.050781 -2.597656 0.875 -2.390625 C 0.695312 -2.179688 0.421875 -1.945312 0.046875 -1.6875 Z M -0.046875 -1.6875 "/></g></g></g><g fill="#6d4831" fill-opacity="1"><g transform="translate(0.802037, 25.301207)"><g><path d="M 3.6875 4.484375 C 3.175781 4.484375 2.71875 4.398438 2.3125 4.234375 C 1.90625 4.078125 1.554688 3.847656 1.265625 3.546875 C 0.972656 3.253906 0.75 2.898438 0.59375 2.484375 C 0.445312 2.078125 0.375 1.617188 0.375 1.109375 C 0.375 0.285156 0.460938 -0.53125 0.640625 -1.34375 C 0.828125 -2.164062 1.15625 -3.066406 1.625 -4.046875 L 1.984375 -3.90625 C 1.742188 -3.3125 1.5625 -2.753906 1.4375 -2.234375 C 1.3125 -1.722656 1.25 -1.253906 1.25 -0.828125 C 1.25 -0.242188 1.335938 0.238281 1.515625 0.625 C 1.691406 1.007812 1.925781 1.3125 2.21875 1.53125 C 2.507812 1.75 2.835938 1.898438 3.203125 1.984375 C 3.578125 2.078125 3.953125 2.125 4.328125 2.125 C 5.140625 2.125 5.832031 1.984375 6.40625 1.703125 C 6.988281 1.429688 7.460938 1.082031 7.828125 0.65625 C 8.203125 0.226562 8.472656 -0.210938 8.640625 -0.671875 C 8.710938 -0.847656 8.769531 -1.050781 8.8125 -1.28125 C 8.851562 -1.507812 8.882812 -1.757812 8.90625 -2.03125 C 8.9375 -2.3125 8.953125 -2.617188 8.953125 -2.953125 C 8.953125 -3.097656 8.945312 -3.242188 8.9375 -3.390625 C 8.9375 -3.546875 8.9375 -3.695312 8.9375 -3.84375 C 8.9375 -4.238281 8.960938 -4.617188 9.015625 -4.984375 C 9.066406 -5.347656 9.148438 -5.726562 9.265625 -6.125 C 9.390625 -6.519531 9.554688 -6.972656 9.765625 -7.484375 L 10.03125 -7.40625 C 10.019531 -7.320312 10.003906 -7.195312 9.984375 -7.03125 C 9.972656 -6.875 9.960938 -6.679688 9.953125 -6.453125 C 9.953125 -6.222656 9.953125 -5.945312 9.953125 -5.625 C 9.941406 -4.632812 9.878906 -3.75 9.765625 -2.96875 C 9.660156 -2.1875 9.519531 -1.503906 9.34375 -0.921875 C 9.09375 -0.148438 8.8125 0.523438 8.5 1.109375 C 8.1875 1.703125 7.84375 2.210938 7.46875 2.640625 C 7.101562 3.066406 6.710938 3.414062 6.296875 3.6875 C 5.890625 3.957031 5.46875 4.15625 5.03125 4.28125 C 4.59375 4.414062 4.144531 4.484375 3.6875 4.484375 Z M 3.6875 4.484375 "/></g></g></g><g fill="#6d4831" fill-opacity="1"><g transform="translate(14.909162, 25.064282)"><g><path d="M -3.1875 -11.625 L -3.453125 -11.75 C -3.210938 -12.238281 -2.941406 -12.65625 -2.640625 -13 C -2.347656 -13.351562 -2.03125 -13.53125 -1.6875 -13.53125 C -1.476562 -13.53125 -1.164062 -13.488281 -0.75 -13.40625 C -0.34375 -13.320312 0.164062 -13.28125 0.78125 -13.28125 C 1.320312 -13.28125 1.816406 -13.332031 2.265625 -13.4375 C 2.722656 -13.539062 3.132812 -13.742188 3.5 -14.046875 L 3.671875 -13.90625 C 3.285156 -13.382812 2.867188 -12.984375 2.421875 -12.703125 C 1.972656 -12.421875 1.523438 -12.222656 1.078125 -12.109375 C 0.640625 -11.992188 0.234375 -11.9375 -0.140625 -11.9375 C -0.578125 -11.9375 -0.921875 -11.953125 -1.171875 -11.984375 C -1.429688 -12.023438 -1.648438 -12.066406 -1.828125 -12.109375 C -2.015625 -12.148438 -2.207031 -12.171875 -2.40625 -12.171875 C -2.5625 -12.171875 -2.691406 -12.128906 -2.796875 -12.046875 C -2.910156 -11.960938 -3.039062 -11.820312 -3.1875 -11.625 Z M -3.1875 -11.625 "/></g></g></g><g fill="#6d4831" fill-opacity="1"><g transform="translate(12.131859, 25.301207)"><g><path d="M 1.625 -1.328125 L 1.328125 -1.390625 C 1.367188 -1.597656 1.410156 -1.921875 1.453125 -2.359375 C 1.503906 -2.796875 1.539062 -3.328125 1.5625 -3.953125 L 1.6875 -7.109375 C 1.695312 -7.503906 1.710938 -7.847656 1.734375 -8.140625 C 1.765625 -8.441406 1.8125 -8.738281 1.875 -9.03125 C 1.945312 -9.320312 2.054688 -9.65625 2.203125 -10.03125 C 2.347656 -10.414062 2.546875 -10.882812 2.796875 -11.4375 L 3.0625 -11.328125 C 2.988281 -11.148438 2.925781 -10.835938 2.875 -10.390625 C 2.832031 -9.953125 2.789062 -9.378906 2.75 -8.671875 L 2.53125 -4.953125 C 2.488281 -4.398438 2.394531 -3.816406 2.25 -3.203125 C 2.113281 -2.597656 1.90625 -1.972656 1.625 -1.328125 Z M 1.625 -1.328125 "/></g></g></g><g fill="#6d4831" fill-opacity="1"><g transform="translate(19.21212, 32.053611)"><g><path d="M -1.703125 -11.5625 L -1.828125 -11.59375 C -1.816406 -11.769531 -1.765625 -11.957031 -1.671875 -12.15625 C -1.578125 -12.363281 -1.410156 -12.601562 -1.171875 -12.875 C -0.929688 -13.144531 -0.597656 -13.46875 -0.171875 -13.84375 L -0.015625 -13.859375 C 0.0859375 -13.804688 0.1875 -13.742188 0.28125 -13.671875 C 0.382812 -13.609375 0.476562 -13.539062 0.5625 -13.46875 C 0.65625 -13.40625 0.742188 -13.34375 0.828125 -13.28125 C 1.046875 -13.101562 1.21875 -12.945312 1.34375 -12.8125 C 1.476562 -12.6875 1.570312 -12.550781 1.625 -12.40625 C 1.6875 -12.269531 1.734375 -12.097656 1.765625 -11.890625 L 1.640625 -11.84375 C 1.460938 -11.976562 1.273438 -12.113281 1.078125 -12.25 C 0.890625 -12.382812 0.695312 -12.515625 0.5 -12.640625 C 0.3125 -12.773438 0.125 -12.898438 -0.0625 -13.015625 C -0.519531 -12.640625 -0.867188 -12.34375 -1.109375 -12.125 C -1.347656 -11.914062 -1.546875 -11.726562 -1.703125 -11.5625 Z M -1.703125 -11.5625 "/></g></g></g><g fill="#6d4831" fill-opacity="1"><g transform="translate(16.474301, 25.301207)"><g><path d="M -2.3125 5.765625 L -2.609375 5.40625 C -2.015625 4.914062 -1.46875 4.382812 -0.96875 3.8125 C -0.476562 3.25 0.00390625 2.613281 0.484375 1.90625 C 0.972656 1.207031 1.5 0.410156 2.0625 -0.484375 C 2.289062 -0.847656 2.507812 -1.171875 2.71875 -1.453125 C 2.925781 -1.742188 3.113281 -1.992188 3.28125 -2.203125 C 3.613281 -2.585938 3.976562 -2.941406 4.375 -3.265625 C 4.78125 -3.585938 5.175781 -3.859375 5.5625 -4.078125 C 5.945312 -4.304688 6.28125 -4.457031 6.5625 -4.53125 C 6.625 -4.539062 6.679688 -4.550781 6.734375 -4.5625 C 6.796875 -4.570312 6.847656 -4.578125 6.890625 -4.578125 C 7.035156 -4.578125 7.140625 -4.523438 7.203125 -4.421875 C 7.273438 -4.328125 7.3125 -4.171875 7.3125 -3.953125 C 7.3125 -3.785156 7.238281 -3.640625 7.09375 -3.515625 C 6.957031 -3.390625 6.835938 -3.304688 6.734375 -3.265625 C 6.359375 -3.097656 6 -2.914062 5.65625 -2.71875 C 5.3125 -2.53125 4.988281 -2.320312 4.6875 -2.09375 C 3.6875 -1.363281 2.84375 -0.460938 2.15625 0.609375 C 1.550781 1.566406 0.992188 2.359375 0.484375 2.984375 C -0.015625 3.617188 -0.488281 4.148438 -0.9375 4.578125 C -1.394531 5.015625 -1.851562 5.410156 -2.3125 5.765625 Z M -2.3125 5.765625 "/></g></g></g><g fill="#6d4831" fill-opacity="1"><g transform="translate(23.450467, 23.708537)"><g><path d="M -1.453125 -11.328125 L -1.53125 -11.421875 C -1.425781 -11.515625 -1.265625 -11.648438 -1.046875 -11.828125 C -0.835938 -12.003906 -0.632812 -12.175781 -0.4375 -12.34375 L 0.21875 -12.859375 C 0.125 -12.972656 0.0546875 -13.082031 0.015625 -13.1875 C -0.015625 -13.300781 -0.03125 -13.390625 -0.03125 -13.453125 C -0.03125 -13.617188 0.015625 -13.78125 0.109375 -13.9375 C 0.210938 -14.09375 0.335938 -14.222656 0.484375 -14.328125 C 0.628906 -14.441406 0.78125 -14.5 0.9375 -14.5 C 1.09375 -14.5 1.210938 -14.445312 1.296875 -14.34375 C 1.390625 -14.25 1.4375 -14.109375 1.4375 -13.921875 C 1.4375 -13.660156 1.363281 -13.414062 1.21875 -13.1875 C 1.070312 -12.96875 0.863281 -12.753906 0.59375 -12.546875 C 0.332031 -12.335938 0.03125 -12.128906 -0.3125 -11.921875 C -0.664062 -11.722656 -1.046875 -11.523438 -1.453125 -11.328125 Z M 0.703125 -13.234375 C 0.765625 -13.304688 0.828125 -13.378906 0.890625 -13.453125 C 0.953125 -13.535156 0.984375 -13.628906 0.984375 -13.734375 C 0.984375 -13.828125 0.953125 -13.894531 0.890625 -13.9375 C 0.835938 -13.976562 0.773438 -14 0.703125 -14 C 0.597656 -14 0.515625 -13.960938 0.453125 -13.890625 C 0.398438 -13.828125 0.375 -13.765625 0.375 -13.703125 C 0.375 -13.640625 0.382812 -13.582031 0.40625 -13.53125 C 0.4375 -13.476562 0.535156 -13.378906 0.703125 -13.234375 Z M 0.703125 -13.234375 "/></g></g></g><g fill="#6d4831" fill-opacity="1"><g transform="translate(23.450467, 25.893527)"><g><path d="M -1.140625 -10.78125 C -1.265625 -10.914062 -1.390625 -11.035156 -1.515625 -11.140625 C -1.640625 -11.253906 -1.757812 -11.363281 -1.875 -11.46875 C -2 -11.570312 -2.117188 -11.671875 -2.234375 -11.765625 L -2.234375 -11.875 C -2.171875 -11.96875 -2.085938 -12.078125 -1.984375 -12.203125 C -1.878906 -12.328125 -1.765625 -12.453125 -1.640625 -12.578125 C -1.523438 -12.710938 -1.414062 -12.832031 -1.3125 -12.9375 C -1.21875 -13.039062 -1.144531 -13.109375 -1.09375 -13.140625 L -0.96875 -13.140625 C -0.757812 -13.015625 -0.578125 -12.890625 -0.421875 -12.765625 C -0.273438 -12.648438 -0.160156 -12.53125 -0.078125 -12.40625 C 0.015625 -12.53125 0.125 -12.660156 0.25 -12.796875 C 0.375 -12.929688 0.492188 -13.050781 0.609375 -13.15625 C 0.722656 -13.269531 0.804688 -13.34375 0.859375 -13.375 L 0.953125 -13.375 C 1.304688 -13.15625 1.566406 -12.957031 1.734375 -12.78125 C 1.910156 -12.613281 2 -12.445312 2 -12.28125 C 2 -12.113281 1.910156 -11.925781 1.734375 -11.71875 C 1.554688 -11.507812 1.296875 -11.28125 0.953125 -11.03125 L 0.828125 -11.03125 C 0.679688 -11.175781 0.535156 -11.3125 0.390625 -11.4375 C 0.253906 -11.5625 0.125 -11.675781 0 -11.78125 C -0.132812 -11.5 -0.476562 -11.164062 -1.03125 -10.78125 Z M -1.140625 -10.78125 "/></g></g></g><g fill="#6d4831" fill-opacity="1"><g transform="translate(23.213541, 22.036889)"><g><path d="M -0.421875 0.125 C -0.585938 0.125 -0.710938 0.0703125 -0.796875 -0.03125 C -0.890625 -0.144531 -0.9375 -0.300781 -0.9375 -0.5 C -0.9375 -0.582031 -0.921875 -0.65625 -0.890625 -0.71875 C -0.867188 -0.789062 -0.835938 -0.859375 -0.796875 -0.921875 C -0.910156 -1.046875 -1 -1.191406 -1.0625 -1.359375 C -1.125 -1.535156 -1.15625 -1.722656 -1.15625 -1.921875 C -1.15625 -2.253906 -1.078125 -2.628906 -0.921875 -3.046875 C -0.773438 -3.460938 -0.5625 -3.820312 -0.28125 -4.125 C -0.113281 -4.289062 0.0664062 -4.425781 0.265625 -4.53125 C 0.472656 -4.632812 0.695312 -4.6875 0.9375 -4.6875 C 1.226562 -4.6875 1.46875 -4.613281 1.65625 -4.46875 C 1.851562 -4.320312 2 -4.128906 2.09375 -3.890625 C 2.1875 -3.660156 2.234375 -3.414062 2.234375 -3.15625 C 2.234375 -2.851562 2.195312 -2.5625 2.125 -2.28125 C 2.050781 -2.007812 1.9375 -1.742188 1.78125 -1.484375 C 1.789062 -1.484375 1.796875 -1.484375 1.796875 -1.484375 C 1.804688 -1.484375 1.816406 -1.484375 1.828125 -1.484375 C 1.847656 -1.484375 1.859375 -1.484375 1.859375 -1.484375 C 1.867188 -1.484375 1.878906 -1.476562 1.890625 -1.46875 C 2.046875 -1.425781 2.125 -1.300781 2.125 -1.09375 C 2.125 -0.875 2.085938 -0.707031 2.015625 -0.59375 C 1.953125 -0.476562 1.851562 -0.410156 1.71875 -0.390625 C 1.625 -0.378906 1.507812 -0.367188 1.375 -0.359375 C 1.25 -0.359375 1.09375 -0.359375 0.90625 -0.359375 C 0.875 -0.359375 0.835938 -0.359375 0.796875 -0.359375 C 0.753906 -0.359375 0.710938 -0.359375 0.671875 -0.359375 C 0.628906 -0.328125 0.535156 -0.269531 0.390625 -0.1875 C 0.253906 -0.113281 0.113281 -0.046875 -0.03125 0.015625 C -0.1875 0.0859375 -0.316406 0.125 -0.421875 0.125 Z M 0.765625 -1.484375 C 1.015625 -1.628906 1.195312 -1.773438 1.3125 -1.921875 C 1.4375 -2.078125 1.5 -2.226562 1.5 -2.375 C 1.5 -2.59375 1.421875 -2.800781 1.265625 -3 C 1.109375 -3.195312 0.882812 -3.296875 0.59375 -3.296875 C 0.425781 -3.296875 0.257812 -3.257812 0.09375 -3.1875 C -0.0703125 -3.125 -0.210938 -3.023438 -0.328125 -2.890625 C -0.441406 -2.765625 -0.5 -2.613281 -0.5 -2.4375 C -0.5 -2.113281 -0.375 -1.875 -0.125 -1.71875 C 0.125 -1.5625 0.421875 -1.484375 0.765625 -1.484375 Z M 0.765625 -1.484375 "/></g></g></g><g fill="#6d4831" fill-opacity="1"><g transform="translate(28.333786, 21.010207)"><g><path d="M -1.703125 -11.5625 L -1.828125 -11.59375 C -1.816406 -11.769531 -1.765625 -11.957031 -1.671875 -12.15625 C -1.578125 -12.363281 -1.410156 -12.601562 -1.171875 -12.875 C -0.929688 -13.144531 -0.597656 -13.46875 -0.171875 -13.84375 L -0.015625 -13.859375 C 0.0859375 -13.804688 0.1875 -13.742188 0.28125 -13.671875 C 0.382812 -13.609375 0.476562 -13.539062 0.5625 -13.46875 C 0.65625 -13.40625 0.742188 -13.34375 0.828125 -13.28125 C 1.046875 -13.101562 1.21875 -12.945312 1.34375 -12.8125 C 1.476562 -12.6875 1.570312 -12.550781 1.625 -12.40625 C 1.6875 -12.269531 1.734375 -12.097656 1.765625 -11.890625 L 1.640625 -11.84375 C 1.460938 -11.976562 1.273438 -12.113281 1.078125 -12.25 C 0.890625 -12.382812 0.695312 -12.515625 0.5 -12.640625 C 0.3125 -12.773438 0.125 -12.898438 -0.0625 -13.015625 C -0.519531 -12.640625 -0.867188 -12.34375 -1.109375 -12.125 C -1.347656 -11.914062 -1.546875 -11.726562 -1.703125 -11.5625 Z M -1.703125 -11.5625 "/></g></g></g><g fill="#6d4831" fill-opacity="1"><g transform="translate(24.661427, 25.301207)"><g/></g></g><g fill="#6d4831" fill-opacity="1"><g transform="translate(24.661427, 21.668337)"><g><path d="M 0 0 C -0.0625 0 -0.128906 -0.03125 -0.203125 -0.09375 C -0.273438 -0.164062 -0.3125 -0.269531 -0.3125 -0.40625 C -0.3125 -0.65625 -0.226562 -0.835938 -0.0625 -0.953125 C 0.09375 -1.066406 0.226562 -1.125 0.34375 -1.125 C 0.71875 -1.125 1.082031 -1.207031 1.4375 -1.375 C 1.800781 -1.539062 2.070312 -1.796875 2.25 -2.140625 C 2.3125 -2.253906 2.363281 -2.382812 2.40625 -2.53125 C 2.445312 -2.6875 2.476562 -2.863281 2.5 -3.0625 C 2.53125 -3.257812 2.550781 -3.472656 2.5625 -3.703125 L 2.65625 -6.609375 C 2.675781 -7.109375 2.738281 -7.617188 2.84375 -8.140625 C 2.957031 -8.660156 3.109375 -9.191406 3.296875 -9.734375 C 3.347656 -9.847656 3.394531 -9.960938 3.4375 -10.078125 C 3.488281 -10.203125 3.539062 -10.320312 3.59375 -10.4375 L 3.875 -10.328125 C 3.832031 -10.148438 3.796875 -9.914062 3.765625 -9.625 C 3.742188 -9.34375 3.722656 -9.003906 3.703125 -8.609375 C 3.671875 -7.867188 3.644531 -7.234375 3.625 -6.703125 C 3.601562 -6.171875 3.578125 -5.753906 3.546875 -5.453125 C 3.515625 -5.046875 3.472656 -4.648438 3.421875 -4.265625 C 3.367188 -3.890625 3.300781 -3.523438 3.21875 -3.171875 C 3.132812 -2.804688 3.03125 -2.476562 2.90625 -2.1875 C 2.78125 -1.894531 2.644531 -1.632812 2.5 -1.40625 C 2.15625 -0.894531 1.757812 -0.53125 1.3125 -0.3125 C 0.875 -0.101562 0.4375 0 0 0 Z M 0 0 "/></g></g></g><g fill="#6d4831" fill-opacity="1"><g transform="translate(30.069737, 25.301207)"><g><path d="M 1.625 -1.328125 L 1.328125 -1.390625 C 1.367188 -1.597656 1.410156 -1.921875 1.453125 -2.359375 C 1.503906 -2.796875 1.539062 -3.328125 1.5625 -3.953125 L 1.6875 -7.109375 C 1.695312 -7.503906 1.710938 -7.847656 1.734375 -8.140625 C 1.765625 -8.441406 1.8125 -8.738281 1.875 -9.03125 C 1.945312 -9.320312 2.054688 -9.65625 2.203125 -10.03125 C 2.347656 -10.414062 2.546875 -10.882812 2.796875 -11.4375 L 3.0625 -11.328125 C 2.988281 -11.148438 2.925781 -10.835938 2.875 -10.390625 C 2.832031 -9.953125 2.789062 -9.378906 2.75 -8.671875 L 2.53125 -4.953125 C 2.488281 -4.398438 2.394531 -3.816406 2.25 -3.203125 C 2.113281 -2.597656 1.90625 -1.972656 1.625 -1.328125 Z M 1.625 -1.328125 "/></g></g></g><g fill="#6d4831" fill-opacity="1"><g transform="translate(34.412178, 25.301207)"><g/></g></g><g fill="#6d4831" fill-opacity="1"><g transform="translate(40.30853, 29.421097)"><g><path d="M -1.453125 -11.328125 L -1.53125 -11.421875 C -1.425781 -11.515625 -1.265625 -11.648438 -1.046875 -11.828125 C -0.835938 -12.003906 -0.632812 -12.175781 -0.4375 -12.34375 L 0.21875 -12.859375 C 0.125 -12.972656 0.0546875 -13.082031 0.015625 -13.1875 C -0.015625 -13.300781 -0.03125 -13.390625 -0.03125 -13.453125 C -0.03125 -13.617188 0.015625 -13.78125 0.109375 -13.9375 C 0.210938 -14.09375 0.335938 -14.222656 0.484375 -14.328125 C 0.628906 -14.441406 0.78125 -14.5 0.9375 -14.5 C 1.09375 -14.5 1.210938 -14.445312 1.296875 -14.34375 C 1.390625 -14.25 1.4375 -14.109375 1.4375 -13.921875 C 1.4375 -13.660156 1.363281 -13.414062 1.21875 -13.1875 C 1.070312 -12.96875 0.863281 -12.753906 0.59375 -12.546875 C 0.332031 -12.335938 0.03125 -12.128906 -0.3125 -11.921875 C -0.664062 -11.722656 -1.046875 -11.523438 -1.453125 -11.328125 Z M 0.703125 -13.234375 C 0.765625 -13.304688 0.828125 -13.378906 0.890625 -13.453125 C 0.953125 -13.535156 0.984375 -13.628906 0.984375 -13.734375 C 0.984375 -13.828125 0.953125 -13.894531 0.890625 -13.9375 C 0.835938 -13.976562 0.773438 -14 0.703125 -14 C 0.597656 -14 0.515625 -13.960938 0.453125 -13.890625 C 0.398438 -13.828125 0.375 -13.765625 0.375 -13.703125 C 0.375 -13.640625 0.382812 -13.582031 0.40625 -13.53125 C 0.4375 -13.476562 0.535156 -13.378906 0.703125 -13.234375 Z M 0.703125 -13.234375 "/></g></g></g><g fill="#6d4831" fill-opacity="1"><g transform="translate(36.149156, 25.301207)"><g><path d="M -0.5625 0.484375 L -0.625 0.1875 C -0.40625 0.0625 -0.160156 -0.09375 0.109375 -0.28125 C 0.390625 -0.476562 0.671875 -0.691406 0.953125 -0.921875 C 1.234375 -1.148438 1.503906 -1.378906 1.765625 -1.609375 C 2.023438 -1.835938 2.253906 -2.050781 2.453125 -2.25 C 2.660156 -2.445312 2.820312 -2.613281 2.9375 -2.75 C 3.039062 -2.875 3.144531 -3.035156 3.25 -3.234375 C 3.363281 -3.429688 3.476562 -3.65625 3.59375 -3.90625 C 3.707031 -4.15625 3.816406 -4.421875 3.921875 -4.703125 C 4.035156 -4.984375 4.144531 -5.257812 4.25 -5.53125 L 4.640625 -5.46875 C 4.472656 -4.78125 4.296875 -4.15625 4.109375 -3.59375 C 3.921875 -3.03125 3.726562 -2.535156 3.53125 -2.109375 C 3.332031 -1.679688 3.128906 -1.320312 2.921875 -1.03125 C 2.722656 -0.738281 2.53125 -0.519531 2.34375 -0.375 C 2.25 -0.320312 2.132812 -0.265625 2 -0.203125 C 1.863281 -0.148438 1.707031 -0.0976562 1.53125 -0.046875 C 1.363281 0.00390625 1.171875 0.0546875 0.953125 0.109375 C 0.734375 0.171875 0.5 0.226562 0.25 0.28125 C 0 0.34375 -0.269531 0.410156 -0.5625 0.484375 Z M -0.5625 0.484375 "/></g></g></g><g fill="#6d4831" fill-opacity="1"><g transform="translate(41.49167, 25.301207)"><g><path d="M 0.3125 0.890625 L 0.265625 0.609375 C 0.554688 0.429688 0.921875 0.191406 1.359375 -0.109375 C 1.796875 -0.410156 2.210938 -0.726562 2.609375 -1.0625 C 2.941406 -1.351562 3.222656 -1.644531 3.453125 -1.9375 C 3.691406 -2.226562 3.828125 -2.488281 3.859375 -2.71875 C 3.679688 -2.65625 3.523438 -2.601562 3.390625 -2.5625 C 3.265625 -2.53125 3.097656 -2.515625 2.890625 -2.515625 C 2.691406 -2.515625 2.507812 -2.550781 2.34375 -2.625 C 2.175781 -2.707031 2.039062 -2.816406 1.9375 -2.953125 C 1.84375 -3.097656 1.796875 -3.265625 1.796875 -3.453125 C 1.796875 -3.597656 1.816406 -3.75 1.859375 -3.90625 C 1.898438 -4.070312 1.960938 -4.242188 2.046875 -4.421875 L 2.484375 -5.28125 C 2.691406 -5.695312 2.988281 -5.90625 3.375 -5.90625 C 3.632812 -5.90625 3.847656 -5.820312 4.015625 -5.65625 C 4.191406 -5.5 4.320312 -5.257812 4.40625 -4.9375 C 4.488281 -4.613281 4.53125 -4.203125 4.53125 -3.703125 C 4.53125 -3.460938 4.507812 -3.195312 4.46875 -2.90625 C 4.4375 -2.625 4.367188 -2.328125 4.265625 -2.015625 C 4.171875 -1.710938 4.046875 -1.410156 3.890625 -1.109375 C 3.734375 -0.816406 3.539062 -0.535156 3.3125 -0.265625 C 3.195312 -0.179688 3.023438 -0.0859375 2.796875 0.015625 C 2.566406 0.117188 2.304688 0.222656 2.015625 0.328125 C 1.734375 0.441406 1.441406 0.546875 1.140625 0.640625 C 0.847656 0.742188 0.570312 0.828125 0.3125 0.890625 Z M 0.3125 0.890625 "/></g></g></g><g clip-path="url(#071554cbf1)"><g fill="#6d4831" fill-opacity="1"><g transform="translate(46.967304, 24.077089)"><g><path d="M -1.453125 -11.328125 L -1.53125 -11.421875 C -1.425781 -11.515625 -1.265625 -11.648438 -1.046875 -11.828125 C -0.835938 -12.003906 -0.632812 -12.175781 -0.4375 -12.34375 L 0.21875 -12.859375 C 0.125 -12.972656 0.0546875 -13.082031 0.015625 -13.1875 C -0.015625 -13.300781 -0.03125 -13.390625 -0.03125 -13.453125 C -0.03125 -13.617188 0.015625 -13.78125 0.109375 -13.9375 C 0.210938 -14.09375 0.335938 -14.222656 0.484375 -14.328125 C 0.628906 -14.441406 0.78125 -14.5 0.9375 -14.5 C 1.09375 -14.5 1.210938 -14.445312 1.296875 -14.34375 C 1.390625 -14.25 1.4375 -14.109375 1.4375 -13.921875 C 1.4375 -13.660156 1.363281 -13.414062 1.21875 -13.1875 C 1.070312 -12.96875 0.863281 -12.753906 0.59375 -12.546875 C 0.332031 -12.335938 0.03125 -12.128906 -0.3125 -11.921875 C -0.664062 -11.722656 -1.046875 -11.523438 -1.453125 -11.328125 Z M 0.703125 -13.234375 C 0.765625 -13.304688 0.828125 -13.378906 0.890625 -13.453125 C 0.953125 -13.535156 0.984375 -13.628906 0.984375 -13.734375 C 0.984375 -13.828125 0.953125 -13.894531 0.890625 -13.9375 C 0.835938 -13.976562 0.773438 -14 0.703125 -14 C 0.597656 -14 0.515625 -13.960938 0.453125 -13.890625 C 0.398438 -13.828125 0.375 -13.765625 0.375 -13.703125 C 0.375 -13.640625 0.382812 -13.582031 0.40625 -13.53125 C 0.4375 -13.476562 0.535156 -13.378906 0.703125 -13.234375 Z M 0.703125 -13.234375 "/></g></g></g></g><g clip-path="url(#2a3ff912ff)"><g fill="#6d4831" fill-opacity="1"><g transform="translate(46.967304, 26.117289)"><g><path d="M -0.046875 -10.953125 C -0.171875 -11.066406 -0.296875 -11.179688 -0.421875 -11.296875 C -0.546875 -11.410156 -0.664062 -11.519531 -0.78125 -11.625 C -0.894531 -11.726562 -1.015625 -11.828125 -1.140625 -11.921875 L -1.140625 -12.03125 C -1.085938 -12.125 -1.007812 -12.234375 -0.90625 -12.359375 C -0.800781 -12.484375 -0.6875 -12.613281 -0.5625 -12.75 C -0.445312 -12.882812 -0.335938 -13 -0.234375 -13.09375 C -0.128906 -13.195312 -0.0507812 -13.265625 0 -13.296875 L 0.125 -13.296875 C 0.519531 -13.046875 0.785156 -12.832031 0.921875 -12.65625 C 1.066406 -12.488281 1.140625 -12.332031 1.140625 -12.1875 C 1.140625 -12.03125 1.050781 -11.847656 0.875 -11.640625 C 0.695312 -11.429688 0.421875 -11.203125 0.046875 -10.953125 Z M -0.046875 -10.953125 "/></g></g></g></g><g fill="#6d4831" fill-opacity="1"><g transform="translate(45.493097, 25.301207)"><g/></g></g><g fill="#6d4831" fill-opacity="1"><g transform="translate(45.493097, 22.036889)"><g><path d="M 0 0 C -0.0703125 0 -0.148438 -0.0351562 -0.234375 -0.109375 C -0.328125 -0.191406 -0.375 -0.328125 -0.375 -0.515625 C -0.375 -0.703125 -0.332031 -0.859375 -0.25 -0.984375 C -0.175781 -1.117188 -0.078125 -1.21875 0.046875 -1.28125 C 0.171875 -1.351562 0.300781 -1.390625 0.4375 -1.390625 C 0.613281 -1.390625 0.753906 -1.441406 0.859375 -1.546875 C 0.960938 -1.648438 1.039062 -1.84375 1.09375 -2.125 C 1.144531 -2.40625 1.179688 -2.804688 1.203125 -3.328125 L 1.203125 -3.75 C 1.210938 -4.007812 1.242188 -4.238281 1.296875 -4.4375 C 1.347656 -4.644531 1.429688 -4.863281 1.546875 -5.09375 C 1.671875 -5.332031 1.84375 -5.617188 2.0625 -5.953125 L 2.34375 -5.875 C 2.3125 -5.695312 2.285156 -5.519531 2.265625 -5.34375 C 2.242188 -5.175781 2.222656 -5.003906 2.203125 -4.828125 C 2.148438 -4.171875 2.054688 -3.546875 1.921875 -2.953125 C 1.796875 -2.359375 1.632812 -1.84375 1.4375 -1.40625 C 1.238281 -0.976562 1.015625 -0.632812 0.765625 -0.375 C 0.523438 -0.125 0.269531 0 0 0 Z M 0 0 "/></g></g></g></g></g><g clip-path="url(#b335b1e6c5)"><path fill="#dbc8ad" d="M 63.679688 83.4375 C 125.609375 105.109375 162.625 129.542969 187.539062 156.542969 C 212.457031 129.542969 249.507812 105.109375 311.4375 83.4375 L 310.957031 85.597656 C 269.660156 103.464844 235.050781 115.484375 187.539062 156.542969 C 158.335938 137.117188 104.378906 108.234375 59.714844 85.722656 C 59.316406 99.0625 53.226562 110.15625 39.328125 118.089844 C 88.675781 146.566406 138.027344 175.046875 187.378906 203.570312 C 187.460938 203.449219 187.5 203.371094 187.539062 203.289062 C 187.621094 203.371094 187.660156 203.449219 187.699219 203.570312 C 237.050781 175.046875 286.402344 146.566406 335.753906 118.089844 C 321.855469 110.15625 315.804688 99.0625 315.363281 85.722656 C 270.699219 108.234375 216.78125 137.117188 187.539062 156.542969 C 140.070312 115.484375 105.460938 103.464844 64.121094 85.597656 L 63.679688 83.4375 " fill-opacity="1" fill-rule="evenodd"/></g><g clip-path="url(#41364d418a)"><path fill="#9b6f54" d="M 13.488281 99.699219 L 187.539062 200.203125 L 361.632812 99.699219 L 374.730469 122.453125 L 213.777344 215.347656 L 306.152344 268.664062 L 293.011719 291.378906 L 187.539062 230.488281 L 82.066406 291.378906 L 68.96875 268.664062 L 161.34375 215.347656 L 0.390625 122.453125 L 13.488281 99.699219 " fill-opacity="1" fill-rule="evenodd"/></g><g clip-path="url(#ea24b44acb)"><path fill="#6d4831" d="M 82.066406 291.378906 L 77.019531 282.644531 L 369.683594 113.679688 L 374.730469 122.453125 L 82.066406 291.378906 " fill-opacity="1" fill-rule="evenodd"/></g><g clip-path="url(#b9501bd883)"><path fill="#6d4831" d="M 297.980469 282.804688 L 292.929688 291.578125 L 0.269531 122.613281 L 5.316406 113.839844 L 297.980469 282.804688 " fill-opacity="1" fill-rule="evenodd"/></g></svg>