<svg xmlns="http://www.w3.org/2000/svg" xmlns:xlink="http://www.w3.org/1999/xlink" width="500" zoomAndPan="magnify" viewBox="0 0 375 374.999991" height="500" preserveAspectRatio="xMidYMid meet" version="1.0"><defs><g/><clipPath id="3e9fe494d4"><path d="M 39 109.261719 L 336 109.261719 L 336 230 L 39 230 Z M 39 109.261719 " clip-rule="nonzero"/></clipPath><clipPath id="23abbcf94f"><path d="M 0.269531 125.363281 L 374.730469 125.363281 L 374.730469 317.402344 L 0.269531 317.402344 Z M 0.269531 125.363281 " clip-rule="nonzero"/></clipPath><clipPath id="9c8ae90d17"><path d="M 77 139.21875 L 374.730469 139.21875 L 374.730469 317.402344 L 77 317.402344 Z M 77 139.21875 " clip-rule="nonzero"/></clipPath><clipPath id="2953395480"><path d="M 0.269531 139.59375 L 298 139.59375 L 298 317.402344 L 0.269531 317.402344 Z M 0.269531 139.59375 " clip-rule="nonzero"/></clipPath><clipPath id="e2947f1232"><rect x="0" width="92" y="0" height="65"/></clipPath></defs><g clip-path="url(#3e9fe494d4)"><path fill="#dbc8ad" d="M 63.679688 109.261719 C 125.609375 130.933594 162.625 155.371094 187.539062 182.367188 C 212.457031 155.371094 249.507812 130.933594 311.4375 109.261719 L 310.957031 111.425781 C 269.660156 129.289062 235.050781 141.308594 187.539062 182.367188 C 158.335938 162.941406 104.378906 134.058594 59.714844 111.546875 C 59.316406 124.886719 53.226562 135.980469 39.328125 143.914062 C 88.675781 172.394531 138.027344 200.875 187.378906 229.394531 C 187.460938 229.277344 187.5 229.195312 187.539062 229.113281 C 187.621094 229.195312 187.660156 229.277344 187.699219 229.394531 C 237.050781 200.875 286.402344 172.394531 335.753906 143.914062 C 321.855469 135.980469 315.804688 124.886719 315.363281 111.546875 C 270.699219 134.058594 216.78125 162.941406 187.539062 182.367188 C 140.070312 141.308594 105.460938 129.289062 64.121094 111.425781 L 63.679688 109.261719 " fill-opacity="1" fill-rule="evenodd"/></g><g clip-path="url(#23abbcf94f)"><path fill="#9b6f54" d="M 13.488281 125.523438 L 187.539062 226.03125 L 361.632812 125.523438 L 374.730469 148.28125 L 213.777344 241.171875 L 306.152344 294.488281 L 293.011719 317.203125 L 187.539062 256.3125 L 82.066406 317.203125 L 68.96875 294.488281 L 161.34375 241.171875 L 0.390625 148.28125 L 13.488281 125.523438 " fill-opacity="1" fill-rule="evenodd"/></g><g clip-path="url(#9c8ae90d17)"><path fill="#6d4831" d="M 82.066406 317.203125 L 77.019531 308.46875 L 369.683594 139.507812 L 374.730469 148.28125 L 82.066406 317.203125 " fill-opacity="1" fill-rule="evenodd"/></g><g clip-path="url(#2953395480)"><path fill="#6d4831" d="M 297.980469 308.628906 L 292.929688 317.402344 L 0.269531 148.4375 L 5.316406 139.664062 L 297.980469 308.628906 " fill-opacity="1" fill-rule="evenodd"/></g><g transform="matrix(1, 0, 0, 1, 142, 70)"><g clip-path="url(#e2947f1232)"><g fill="#6d4831" fill-opacity="1"><g transform="translate(8.729868, 59.281967)"><g><path d="M -2.78125 4.53125 L -2.953125 4.421875 C -2.890625 4.054688 -2.722656 3.726562 -2.453125 3.4375 C -2.191406 3.144531 -1.90625 2.898438 -1.59375 2.703125 C -1.28125 2.503906 -1.023438 2.347656 -0.828125 2.234375 C -0.253906 1.910156 0.304688 1.59375 0.859375 1.28125 C 1.421875 0.96875 1.984375 0.65625 2.546875 0.34375 C 2.679688 0.257812 2.789062 0.191406 2.875 0.140625 C 2.96875 0.0859375 3.039062 0.046875 3.09375 0.015625 L 3.3125 0.140625 C 3.1875 0.484375 3.023438 0.785156 2.828125 1.046875 C 2.628906 1.316406 2.335938 1.554688 1.953125 1.765625 L -1.484375 3.65625 C -1.867188 3.863281 -2.15625 4.03125 -2.34375 4.15625 C -2.539062 4.289062 -2.6875 4.414062 -2.78125 4.53125 Z M -2.78125 4.53125 "/></g></g></g><g fill="#6d4831" fill-opacity="1"><g transform="translate(10.829741, 47.102692)"><g><path d="M -0.09375 -3.15625 C -0.445312 -3.519531 -0.796875 -3.851562 -1.140625 -4.15625 C -1.484375 -4.46875 -1.820312 -4.753906 -2.15625 -5.015625 L -2.15625 -5.234375 C -2.050781 -5.398438 -1.898438 -5.601562 -1.703125 -5.84375 C -1.503906 -6.082031 -1.289062 -6.320312 -1.0625 -6.5625 C -0.84375 -6.8125 -0.632812 -7.03125 -0.4375 -7.21875 C -0.238281 -7.414062 -0.09375 -7.546875 0 -7.609375 L 0.21875 -7.609375 C 0.976562 -7.128906 1.488281 -6.726562 1.75 -6.40625 C 2.019531 -6.082031 2.15625 -5.785156 2.15625 -5.515625 C 2.15625 -5.234375 1.984375 -4.894531 1.640625 -4.5 C 1.304688 -4.101562 0.789062 -3.65625 0.09375 -3.15625 Z M -0.09375 -3.15625 "/></g></g></g><g fill="#6d4831" fill-opacity="1"><g transform="translate(1.022089, 47.077986)"><g><path d="M 6.921875 8.421875 C 5.960938 8.421875 5.097656 8.269531 4.328125 7.96875 C 3.566406 7.664062 2.914062 7.234375 2.375 6.671875 C 1.832031 6.109375 1.414062 5.441406 1.125 4.671875 C 0.832031 3.898438 0.6875 3.035156 0.6875 2.078125 C 0.6875 0.546875 0.859375 -0.988281 1.203125 -2.53125 C 1.554688 -4.070312 2.164062 -5.765625 3.03125 -7.609375 L 3.734375 -7.34375 C 3.265625 -6.21875 2.914062 -5.171875 2.6875 -4.203125 C 2.457031 -3.242188 2.34375 -2.363281 2.34375 -1.5625 C 2.34375 -0.46875 2.503906 0.4375 2.828125 1.15625 C 3.160156 1.882812 3.601562 2.453125 4.15625 2.859375 C 4.707031 3.273438 5.328125 3.566406 6.015625 3.734375 C 6.710938 3.910156 7.414062 4 8.125 4 C 9.65625 4 10.960938 3.738281 12.046875 3.21875 C 13.140625 2.707031 14.03125 2.046875 14.71875 1.234375 C 15.414062 0.429688 15.921875 -0.398438 16.234375 -1.265625 C 16.359375 -1.585938 16.460938 -1.960938 16.546875 -2.390625 C 16.628906 -2.816406 16.691406 -3.296875 16.734375 -3.828125 C 16.773438 -4.359375 16.796875 -4.925781 16.796875 -5.53125 C 16.796875 -5.8125 16.789062 -6.09375 16.78125 -6.375 C 16.769531 -6.65625 16.765625 -6.9375 16.765625 -7.21875 C 16.765625 -7.957031 16.8125 -8.664062 16.90625 -9.34375 C 17.007812 -10.03125 17.175781 -10.75 17.40625 -11.5 C 17.644531 -12.25 17.953125 -13.101562 18.328125 -14.0625 L 18.84375 -13.90625 C 18.8125 -13.738281 18.78125 -13.503906 18.75 -13.203125 C 18.726562 -12.910156 18.710938 -12.546875 18.703125 -12.109375 C 18.703125 -11.679688 18.691406 -11.171875 18.671875 -10.578125 C 18.660156 -8.710938 18.554688 -7.039062 18.359375 -5.5625 C 18.160156 -4.09375 17.890625 -2.816406 17.546875 -1.734375 C 17.078125 -0.285156 16.546875 0.988281 15.953125 2.09375 C 15.359375 3.195312 14.71875 4.148438 14.03125 4.953125 C 13.34375 5.753906 12.609375 6.410156 11.828125 6.921875 C 11.054688 7.429688 10.257812 7.804688 9.4375 8.046875 C 8.613281 8.296875 7.773438 8.421875 6.921875 8.421875 Z M 6.921875 8.421875 "/></g></g></g><g fill="#6d4831" fill-opacity="1"><g transform="translate(27.499286, 46.633308)"><g><path d="M -5.984375 -21.84375 L -6.46875 -22.0625 C -6.03125 -22.976562 -5.53125 -23.765625 -4.96875 -24.421875 C -4.40625 -25.085938 -3.800781 -25.421875 -3.15625 -25.421875 C -2.757812 -25.421875 -2.175781 -25.335938 -1.40625 -25.171875 C -0.644531 -25.003906 0.304688 -24.921875 1.453125 -24.921875 C 2.472656 -24.921875 3.40625 -25.019531 4.25 -25.21875 C 5.101562 -25.414062 5.878906 -25.804688 6.578125 -26.390625 L 6.890625 -26.109375 C 6.171875 -25.140625 5.390625 -24.382812 4.546875 -23.84375 C 3.703125 -23.3125 2.863281 -22.9375 2.03125 -22.71875 C 1.207031 -22.507812 0.441406 -22.40625 -0.265625 -22.40625 C -1.078125 -22.40625 -1.722656 -22.441406 -2.203125 -22.515625 C -2.691406 -22.585938 -3.101562 -22.660156 -3.4375 -22.734375 C -3.78125 -22.804688 -4.140625 -22.84375 -4.515625 -22.84375 C -4.816406 -22.84375 -5.066406 -22.765625 -5.265625 -22.609375 C -5.472656 -22.453125 -5.710938 -22.195312 -5.984375 -21.84375 Z M -5.984375 -21.84375 "/></g></g></g><g fill="#6d4831" fill-opacity="1"><g transform="translate(22.286656, 47.077986)"><g><path d="M 3.03125 -2.5 L 2.5 -2.625 C 2.582031 -3 2.660156 -3.597656 2.734375 -4.421875 C 2.816406 -5.242188 2.882812 -6.25 2.9375 -7.4375 L 3.15625 -13.34375 C 3.195312 -14.082031 3.234375 -14.726562 3.265625 -15.28125 C 3.304688 -15.84375 3.394531 -16.398438 3.53125 -16.953125 C 3.664062 -17.503906 3.867188 -18.132812 4.140625 -18.84375 C 4.410156 -19.550781 4.773438 -20.425781 5.234375 -21.46875 L 5.75 -21.265625 C 5.625 -20.941406 5.515625 -20.363281 5.421875 -19.53125 C 5.328125 -18.695312 5.238281 -17.613281 5.15625 -16.28125 L 4.75 -9.3125 C 4.675781 -8.257812 4.503906 -7.164062 4.234375 -6.03125 C 3.960938 -4.894531 3.5625 -3.71875 3.03125 -2.5 Z M 3.03125 -2.5 "/></g></g></g><g fill="#6d4831" fill-opacity="1"><g transform="translate(35.575364, 59.75135)"><g><path d="M -3.1875 -21.71875 L -3.4375 -21.765625 C -3.414062 -22.109375 -3.3125 -22.46875 -3.125 -22.84375 C -2.945312 -23.226562 -2.632812 -23.671875 -2.1875 -24.171875 C -1.75 -24.671875 -1.128906 -25.273438 -0.328125 -25.984375 L -0.03125 -26.03125 C 0.164062 -25.914062 0.351562 -25.796875 0.53125 -25.671875 C 0.71875 -25.554688 0.894531 -25.4375 1.0625 -25.3125 C 1.226562 -25.1875 1.394531 -25.054688 1.5625 -24.921875 C 1.96875 -24.597656 2.289062 -24.316406 2.53125 -24.078125 C 2.769531 -23.835938 2.945312 -23.582031 3.0625 -23.3125 C 3.175781 -23.050781 3.257812 -22.722656 3.3125 -22.328125 L 3.09375 -22.234375 C 2.738281 -22.492188 2.378906 -22.75 2.015625 -23 C 1.660156 -23.257812 1.304688 -23.507812 0.953125 -23.75 C 0.597656 -23.988281 0.238281 -24.21875 -0.125 -24.4375 C -0.976562 -23.726562 -1.628906 -23.175781 -2.078125 -22.78125 C -2.535156 -22.382812 -2.90625 -22.03125 -3.1875 -21.71875 Z M -3.1875 -21.71875 "/></g></g></g><g fill="#6d4831" fill-opacity="1"><g transform="translate(30.436841, 47.077986)"><g><path d="M -4.34375 10.8125 L -4.890625 10.15625 C -3.785156 9.226562 -2.765625 8.234375 -1.828125 7.171875 C -0.898438 6.109375 0.015625 4.914062 0.921875 3.59375 C 1.835938 2.269531 2.820312 0.769531 3.875 -0.90625 C 4.300781 -1.582031 4.707031 -2.191406 5.09375 -2.734375 C 5.488281 -3.285156 5.847656 -3.75 6.171875 -4.125 C 6.796875 -4.851562 7.484375 -5.519531 8.234375 -6.125 C 8.984375 -6.738281 9.71875 -7.253906 10.4375 -7.671875 C 11.164062 -8.085938 11.796875 -8.363281 12.328125 -8.5 C 12.441406 -8.53125 12.550781 -8.550781 12.65625 -8.5625 C 12.769531 -8.582031 12.863281 -8.59375 12.9375 -8.59375 C 13.207031 -8.59375 13.40625 -8.5 13.53125 -8.3125 C 13.664062 -8.125 13.734375 -7.832031 13.734375 -7.4375 C 13.734375 -7.125 13.597656 -6.847656 13.328125 -6.609375 C 13.066406 -6.367188 12.835938 -6.207031 12.640625 -6.125 C 11.929688 -5.8125 11.253906 -5.472656 10.609375 -5.109375 C 9.972656 -4.742188 9.367188 -4.347656 8.796875 -3.921875 C 6.921875 -2.554688 5.335938 -0.867188 4.046875 1.140625 C 2.910156 2.929688 1.867188 4.421875 0.921875 5.609375 C -0.0234375 6.796875 -0.921875 7.796875 -1.765625 8.609375 C -2.609375 9.421875 -3.46875 10.15625 -4.34375 10.8125 Z M -4.34375 10.8125 "/></g></g></g><g fill="#6d4831" fill-opacity="1"><g transform="translate(43.530177, 44.088757)"><g><path d="M -2.734375 -21.265625 L -2.859375 -21.4375 C -2.660156 -21.625 -2.363281 -21.878906 -1.96875 -22.203125 C -1.582031 -22.535156 -1.195312 -22.859375 -0.8125 -23.171875 L 0.421875 -24.15625 C 0.234375 -24.375 0.109375 -24.582031 0.046875 -24.78125 C -0.015625 -24.988281 -0.046875 -25.148438 -0.046875 -25.265625 C -0.046875 -25.566406 0.0390625 -25.863281 0.21875 -26.15625 C 0.40625 -26.457031 0.632812 -26.707031 0.90625 -26.90625 C 1.1875 -27.113281 1.46875 -27.21875 1.75 -27.21875 C 2.050781 -27.21875 2.28125 -27.125 2.4375 -26.9375 C 2.601562 -26.75 2.6875 -26.484375 2.6875 -26.140625 C 2.6875 -25.660156 2.550781 -25.207031 2.28125 -24.78125 C 2.007812 -24.351562 1.625 -23.941406 1.125 -23.546875 C 0.632812 -23.160156 0.0625 -22.78125 -0.59375 -22.40625 C -1.25 -22.03125 -1.960938 -21.648438 -2.734375 -21.265625 Z M 1.3125 -24.84375 C 1.4375 -24.976562 1.554688 -25.117188 1.671875 -25.265625 C 1.796875 -25.421875 1.859375 -25.597656 1.859375 -25.796875 C 1.859375 -25.972656 1.800781 -26.097656 1.6875 -26.171875 C 1.582031 -26.242188 1.460938 -26.28125 1.328125 -26.28125 C 1.117188 -26.28125 0.957031 -26.21875 0.84375 -26.09375 C 0.738281 -25.96875 0.6875 -25.84375 0.6875 -25.71875 C 0.6875 -25.613281 0.710938 -25.507812 0.765625 -25.40625 C 0.828125 -25.3125 1.007812 -25.125 1.3125 -24.84375 Z M 1.3125 -24.84375 "/></g></g></g><g fill="#6d4831" fill-opacity="1"><g transform="translate(43.530177, 48.189691)"><g><path d="M -2.15625 -20.25 C -2.382812 -20.5 -2.617188 -20.726562 -2.859375 -20.9375 C -3.097656 -21.144531 -3.328125 -21.347656 -3.546875 -21.546875 C -3.765625 -21.742188 -3.984375 -21.921875 -4.203125 -22.078125 L -4.203125 -22.3125 C -4.085938 -22.46875 -3.929688 -22.664062 -3.734375 -22.90625 C -3.535156 -23.144531 -3.320312 -23.390625 -3.09375 -23.640625 C -2.875 -23.890625 -2.671875 -24.109375 -2.484375 -24.296875 C -2.296875 -24.484375 -2.148438 -24.609375 -2.046875 -24.671875 L -1.828125 -24.671875 C -1.429688 -24.429688 -1.085938 -24.195312 -0.796875 -23.96875 C -0.515625 -23.75 -0.296875 -23.523438 -0.140625 -23.296875 C 0.0351562 -23.523438 0.238281 -23.765625 0.46875 -24.015625 C 0.695312 -24.273438 0.914062 -24.507812 1.125 -24.71875 C 1.34375 -24.925781 1.503906 -25.0625 1.609375 -25.125 L 1.796875 -25.125 C 2.460938 -24.707031 2.953125 -24.335938 3.265625 -24.015625 C 3.585938 -23.703125 3.75 -23.378906 3.75 -23.046875 C 3.75 -22.734375 3.582031 -22.382812 3.25 -22 C 2.925781 -21.613281 2.4375 -21.179688 1.78125 -20.703125 L 1.5625 -20.703125 C 1.28125 -20.984375 1.003906 -21.242188 0.734375 -21.484375 C 0.472656 -21.722656 0.226562 -21.941406 0 -22.140625 C -0.257812 -21.609375 -0.898438 -20.976562 -1.921875 -20.25 Z M -2.15625 -20.25 "/></g></g></g><g fill="#6d4831" fill-opacity="1"><g transform="translate(43.085499, 40.951295)"><g><path d="M -0.796875 0.21875 C -1.109375 0.21875 -1.34375 0.117188 -1.5 -0.078125 C -1.664062 -0.273438 -1.75 -0.5625 -1.75 -0.9375 C -1.75 -1.082031 -1.722656 -1.222656 -1.671875 -1.359375 C -1.628906 -1.492188 -1.570312 -1.617188 -1.5 -1.734375 C -1.71875 -1.960938 -1.882812 -2.234375 -2 -2.546875 C -2.113281 -2.867188 -2.171875 -3.222656 -2.171875 -3.609375 C -2.171875 -4.234375 -2.023438 -4.9375 -1.734375 -5.71875 C -1.453125 -6.5 -1.046875 -7.171875 -0.515625 -7.734375 C -0.203125 -8.054688 0.140625 -8.3125 0.515625 -8.5 C 0.898438 -8.695312 1.3125 -8.796875 1.75 -8.796875 C 2.289062 -8.796875 2.742188 -8.660156 3.109375 -8.390625 C 3.472656 -8.117188 3.742188 -7.765625 3.921875 -7.328125 C 4.109375 -6.890625 4.203125 -6.421875 4.203125 -5.921875 C 4.203125 -5.367188 4.128906 -4.828125 3.984375 -4.296875 C 3.847656 -3.773438 3.628906 -3.273438 3.328125 -2.796875 C 3.347656 -2.796875 3.363281 -2.796875 3.375 -2.796875 C 3.394531 -2.796875 3.414062 -2.796875 3.4375 -2.796875 C 3.46875 -2.796875 3.488281 -2.796875 3.5 -2.796875 C 3.519531 -2.796875 3.539062 -2.785156 3.5625 -2.765625 C 3.84375 -2.679688 3.984375 -2.441406 3.984375 -2.046875 C 3.984375 -1.640625 3.921875 -1.328125 3.796875 -1.109375 C 3.671875 -0.898438 3.484375 -0.773438 3.234375 -0.734375 C 3.054688 -0.722656 2.84375 -0.707031 2.59375 -0.6875 C 2.34375 -0.675781 2.046875 -0.671875 1.703125 -0.671875 C 1.640625 -0.671875 1.570312 -0.671875 1.5 -0.671875 C 1.425781 -0.671875 1.347656 -0.671875 1.265625 -0.671875 C 1.179688 -0.617188 1.003906 -0.515625 0.734375 -0.359375 C 0.472656 -0.210938 0.203125 -0.0820312 -0.078125 0.03125 C -0.359375 0.15625 -0.597656 0.21875 -0.796875 0.21875 Z M 1.4375 -2.796875 C 1.914062 -3.078125 2.265625 -3.351562 2.484375 -3.625 C 2.703125 -3.90625 2.8125 -4.1875 2.8125 -4.46875 C 2.8125 -4.882812 2.660156 -5.273438 2.359375 -5.640625 C 2.066406 -6.015625 1.648438 -6.203125 1.109375 -6.203125 C 0.796875 -6.203125 0.484375 -6.132812 0.171875 -6 C -0.140625 -5.875 -0.398438 -5.6875 -0.609375 -5.4375 C -0.828125 -5.1875 -0.9375 -4.894531 -0.9375 -4.5625 C -0.9375 -3.976562 -0.703125 -3.535156 -0.234375 -3.234375 C 0.234375 -2.941406 0.789062 -2.796875 1.4375 -2.796875 Z M 1.4375 -2.796875 "/></g></g></g><g fill="#6d4831" fill-opacity="1"><g transform="translate(52.695518, 39.024351)"><g><path d="M -3.1875 -21.71875 L -3.4375 -21.765625 C -3.414062 -22.109375 -3.3125 -22.46875 -3.125 -22.84375 C -2.945312 -23.226562 -2.632812 -23.671875 -2.1875 -24.171875 C -1.75 -24.671875 -1.128906 -25.273438 -0.328125 -25.984375 L -0.03125 -26.03125 C 0.164062 -25.914062 0.351562 -25.796875 0.53125 -25.671875 C 0.71875 -25.554688 0.894531 -25.4375 1.0625 -25.3125 C 1.226562 -25.1875 1.394531 -25.054688 1.5625 -24.921875 C 1.96875 -24.597656 2.289062 -24.316406 2.53125 -24.078125 C 2.769531 -23.835938 2.945312 -23.582031 3.0625 -23.3125 C 3.175781 -23.050781 3.257812 -22.722656 3.3125 -22.328125 L 3.09375 -22.234375 C 2.738281 -22.492188 2.378906 -22.75 2.015625 -23 C 1.660156 -23.257812 1.304688 -23.507812 0.953125 -23.75 C 0.597656 -23.988281 0.238281 -24.21875 -0.125 -24.4375 C -0.976562 -23.726562 -1.628906 -23.175781 -2.078125 -22.78125 C -2.535156 -22.382812 -2.90625 -22.03125 -3.1875 -21.71875 Z M -3.1875 -21.71875 "/></g></g></g><g fill="#6d4831" fill-opacity="1"><g transform="translate(45.802988, 47.077986)"><g/></g></g><g fill="#6d4831" fill-opacity="1"><g transform="translate(45.802988, 40.259573)"><g><path d="M 0 0 C -0.113281 0 -0.238281 -0.0625 -0.375 -0.1875 C -0.519531 -0.3125 -0.59375 -0.503906 -0.59375 -0.765625 C -0.59375 -1.222656 -0.4375 -1.554688 -0.125 -1.765625 C 0.175781 -1.984375 0.429688 -2.09375 0.640625 -2.09375 C 1.347656 -2.09375 2.039062 -2.25 2.71875 -2.5625 C 3.394531 -2.875 3.894531 -3.363281 4.21875 -4.03125 C 4.332031 -4.238281 4.429688 -4.484375 4.515625 -4.765625 C 4.597656 -5.046875 4.664062 -5.367188 4.71875 -5.734375 C 4.769531 -6.109375 4.800781 -6.519531 4.8125 -6.96875 L 4.984375 -12.40625 C 5.023438 -13.34375 5.144531 -14.300781 5.34375 -15.28125 C 5.550781 -16.257812 5.835938 -17.257812 6.203125 -18.28125 C 6.285156 -18.488281 6.367188 -18.703125 6.453125 -18.921875 C 6.546875 -19.148438 6.644531 -19.375 6.75 -19.59375 L 7.265625 -19.390625 C 7.191406 -19.054688 7.128906 -18.625 7.078125 -18.09375 C 7.035156 -17.5625 7 -16.914062 6.96875 -16.15625 C 6.90625 -14.769531 6.851562 -13.578125 6.8125 -12.578125 C 6.769531 -11.585938 6.722656 -10.804688 6.671875 -10.234375 C 6.609375 -9.472656 6.523438 -8.734375 6.421875 -8.015625 C 6.328125 -7.296875 6.203125 -6.609375 6.046875 -5.953125 C 5.890625 -5.273438 5.691406 -4.660156 5.453125 -4.109375 C 5.222656 -3.554688 4.96875 -3.066406 4.6875 -2.640625 C 4.050781 -1.679688 3.316406 -1 2.484375 -0.59375 C 1.648438 -0.195312 0.820312 0 0 0 Z M 0 0 "/></g></g></g><g fill="#6d4831" fill-opacity="1"><g transform="translate(55.953666, 47.077986)"><g><path d="M 3.03125 -2.5 L 2.5 -2.625 C 2.582031 -3 2.660156 -3.597656 2.734375 -4.421875 C 2.816406 -5.242188 2.882812 -6.25 2.9375 -7.4375 L 3.15625 -13.34375 C 3.195312 -14.082031 3.234375 -14.726562 3.265625 -15.28125 C 3.304688 -15.84375 3.394531 -16.398438 3.53125 -16.953125 C 3.664062 -17.503906 3.867188 -18.132812 4.140625 -18.84375 C 4.410156 -19.550781 4.773438 -20.425781 5.234375 -21.46875 L 5.75 -21.265625 C 5.625 -20.941406 5.515625 -20.363281 5.421875 -19.53125 C 5.328125 -18.695312 5.238281 -17.613281 5.15625 -16.28125 L 4.75 -9.3125 C 4.675781 -8.257812 4.503906 -7.164062 4.234375 -6.03125 C 3.960938 -4.894531 3.5625 -3.71875 3.03125 -2.5 Z M 3.03125 -2.5 "/></g></g></g><g fill="#6d4831" fill-opacity="1"><g transform="translate(64.103851, 47.077986)"><g/></g></g><g fill="#6d4831" fill-opacity="1"><g transform="translate(75.170517, 54.81047)"><g><path d="M -2.734375 -21.265625 L -2.859375 -21.4375 C -2.660156 -21.625 -2.363281 -21.878906 -1.96875 -22.203125 C -1.582031 -22.535156 -1.195312 -22.859375 -0.8125 -23.171875 L 0.421875 -24.15625 C 0.234375 -24.375 0.109375 -24.582031 0.046875 -24.78125 C -0.015625 -24.988281 -0.046875 -25.148438 -0.046875 -25.265625 C -0.046875 -25.566406 0.0390625 -25.863281 0.21875 -26.15625 C 0.40625 -26.457031 0.632812 -26.707031 0.90625 -26.90625 C 1.1875 -27.113281 1.46875 -27.21875 1.75 -27.21875 C 2.050781 -27.21875 2.28125 -27.125 2.4375 -26.9375 C 2.601562 -26.75 2.6875 -26.484375 2.6875 -26.140625 C 2.6875 -25.660156 2.550781 -25.207031 2.28125 -24.78125 C 2.007812 -24.351562 1.625 -23.941406 1.125 -23.546875 C 0.632812 -23.160156 0.0625 -22.78125 -0.59375 -22.40625 C -1.25 -22.03125 -1.960938 -21.648438 -2.734375 -21.265625 Z M 1.3125 -24.84375 C 1.4375 -24.976562 1.554688 -25.117188 1.671875 -25.265625 C 1.796875 -25.421875 1.859375 -25.597656 1.859375 -25.796875 C 1.859375 -25.972656 1.800781 -26.097656 1.6875 -26.171875 C 1.582031 -26.242188 1.460938 -26.28125 1.328125 -26.28125 C 1.117188 -26.28125 0.957031 -26.21875 0.84375 -26.09375 C 0.738281 -25.96875 0.6875 -25.84375 0.6875 -25.71875 C 0.6875 -25.613281 0.710938 -25.507812 0.765625 -25.40625 C 0.828125 -25.3125 1.007812 -25.125 1.3125 -24.84375 Z M 1.3125 -24.84375 "/></g></g></g><g fill="#6d4831" fill-opacity="1"><g transform="translate(67.363926, 47.077986)"><g><path d="M -1.0625 0.90625 L -1.15625 0.34375 C -0.75 0.113281 -0.289062 -0.179688 0.21875 -0.546875 C 0.726562 -0.910156 1.242188 -1.304688 1.765625 -1.734375 C 2.296875 -2.160156 2.804688 -2.585938 3.296875 -3.015625 C 3.796875 -3.441406 4.234375 -3.84375 4.609375 -4.21875 C 4.992188 -4.601562 5.296875 -4.914062 5.515625 -5.15625 C 5.710938 -5.394531 5.910156 -5.695312 6.109375 -6.0625 C 6.316406 -6.4375 6.523438 -6.859375 6.734375 -7.328125 C 6.953125 -7.796875 7.164062 -8.289062 7.375 -8.8125 C 7.582031 -9.34375 7.785156 -9.875 7.984375 -10.40625 L 8.71875 -10.28125 C 8.40625 -8.976562 8.070312 -7.796875 7.71875 -6.734375 C 7.363281 -5.679688 7 -4.753906 6.625 -3.953125 C 6.257812 -3.160156 5.882812 -2.488281 5.5 -1.9375 C 5.125 -1.382812 4.753906 -0.96875 4.390625 -0.6875 C 4.210938 -0.59375 3.992188 -0.492188 3.734375 -0.390625 C 3.484375 -0.296875 3.195312 -0.195312 2.875 -0.09375 C 2.550781 0 2.1875 0.0976562 1.78125 0.203125 C 1.382812 0.316406 0.945312 0.429688 0.46875 0.546875 C -0.0078125 0.660156 -0.519531 0.78125 -1.0625 0.90625 Z M -1.0625 0.90625 "/></g></g></g><g fill="#6d4831" fill-opacity="1"><g transform="translate(77.391114, 47.077986)"><g><path d="M 0.59375 1.6875 L 0.5 1.140625 C 1.050781 0.804688 1.734375 0.359375 2.546875 -0.203125 C 3.367188 -0.773438 4.148438 -1.375 4.890625 -2 C 5.515625 -2.539062 6.046875 -3.082031 6.484375 -3.625 C 6.929688 -4.175781 7.179688 -4.671875 7.234375 -5.109375 C 6.910156 -4.984375 6.628906 -4.882812 6.390625 -4.8125 C 6.148438 -4.75 5.832031 -4.71875 5.4375 -4.71875 C 5.050781 -4.71875 4.703125 -4.789062 4.390625 -4.9375 C 4.078125 -5.082031 3.828125 -5.285156 3.640625 -5.546875 C 3.453125 -5.816406 3.359375 -6.125 3.359375 -6.46875 C 3.359375 -6.75 3.398438 -7.039062 3.484375 -7.34375 C 3.566406 -7.65625 3.691406 -7.972656 3.859375 -8.296875 L 4.671875 -9.9375 C 5.066406 -10.707031 5.625 -11.09375 6.34375 -11.09375 C 6.820312 -11.09375 7.222656 -10.9375 7.546875 -10.625 C 7.867188 -10.320312 8.109375 -9.863281 8.265625 -9.25 C 8.429688 -8.644531 8.515625 -7.882812 8.515625 -6.96875 C 8.515625 -6.507812 8.476562 -6.007812 8.40625 -5.46875 C 8.332031 -4.9375 8.203125 -4.378906 8.015625 -3.796875 C 7.835938 -3.222656 7.601562 -2.65625 7.3125 -2.09375 C 7.019531 -1.539062 6.65625 -1.007812 6.21875 -0.5 C 6.007812 -0.34375 5.691406 -0.164062 5.265625 0.03125 C 4.835938 0.226562 4.347656 0.425781 3.796875 0.625 C 3.253906 0.832031 2.703125 1.023438 2.140625 1.203125 C 1.585938 1.390625 1.070312 1.550781 0.59375 1.6875 Z M 0.59375 1.6875 "/></g></g></g><g fill="#6d4831" fill-opacity="1"><g transform="translate(87.66815, 44.780479)"><g><path d="M -2.734375 -21.265625 L -2.859375 -21.4375 C -2.660156 -21.625 -2.363281 -21.878906 -1.96875 -22.203125 C -1.582031 -22.535156 -1.195312 -22.859375 -0.8125 -23.171875 L 0.421875 -24.15625 C 0.234375 -24.375 0.109375 -24.582031 0.046875 -24.78125 C -0.015625 -24.988281 -0.046875 -25.148438 -0.046875 -25.265625 C -0.046875 -25.566406 0.0390625 -25.863281 0.21875 -26.15625 C 0.40625 -26.457031 0.632812 -26.707031 0.90625 -26.90625 C 1.1875 -27.113281 1.46875 -27.21875 1.75 -27.21875 C 2.050781 -27.21875 2.28125 -27.125 2.4375 -26.9375 C 2.601562 -26.75 2.6875 -26.484375 2.6875 -26.140625 C 2.6875 -25.660156 2.550781 -25.207031 2.28125 -24.78125 C 2.007812 -24.351562 1.625 -23.941406 1.125 -23.546875 C 0.632812 -23.160156 0.0625 -22.78125 -0.59375 -22.40625 C -1.25 -22.03125 -1.960938 -21.648438 -2.734375 -21.265625 Z M 1.3125 -24.84375 C 1.4375 -24.976562 1.554688 -25.117188 1.671875 -25.265625 C 1.796875 -25.421875 1.859375 -25.597656 1.859375 -25.796875 C 1.859375 -25.972656 1.800781 -26.097656 1.6875 -26.171875 C 1.582031 -26.242188 1.460938 -26.28125 1.328125 -26.28125 C 1.117188 -26.28125 0.957031 -26.21875 0.84375 -26.09375 C 0.738281 -25.96875 0.6875 -25.84375 0.6875 -25.71875 C 0.6875 -25.613281 0.710938 -25.507812 0.765625 -25.40625 C 0.828125 -25.3125 1.007812 -25.125 1.3125 -24.84375 Z M 1.3125 -24.84375 "/></g></g></g><g fill="#6d4831" fill-opacity="1"><g transform="translate(87.66815, 48.609664)"><g><path d="M -0.09375 -20.546875 C -0.320312 -20.785156 -0.550781 -21.007812 -0.78125 -21.21875 C -1.019531 -21.4375 -1.25 -21.644531 -1.46875 -21.84375 C -1.6875 -22.039062 -1.914062 -22.21875 -2.15625 -22.375 L -2.15625 -22.609375 C -2.050781 -22.765625 -1.898438 -22.960938 -1.703125 -23.203125 C -1.503906 -23.441406 -1.289062 -23.6875 -1.0625 -23.9375 C -0.84375 -24.1875 -0.632812 -24.40625 -0.4375 -24.59375 C -0.238281 -24.78125 -0.09375 -24.90625 0 -24.96875 L 0.21875 -24.96875 C 0.976562 -24.5 1.488281 -24.101562 1.75 -23.78125 C 2.019531 -23.457031 2.15625 -23.15625 2.15625 -22.875 C 2.15625 -22.59375 1.984375 -22.253906 1.640625 -21.859375 C 1.304688 -21.460938 0.789062 -21.023438 0.09375 -20.546875 Z M -0.09375 -20.546875 "/></g></g></g><g fill="#6d4831" fill-opacity="1"><g transform="translate(84.90126, 47.077986)"><g/></g></g><g fill="#6d4831" fill-opacity="1"><g transform="translate(84.90126, 40.951295)"><g><path d="M 0 0 C -0.132812 0 -0.285156 -0.0703125 -0.453125 -0.21875 C -0.628906 -0.363281 -0.71875 -0.613281 -0.71875 -0.96875 C -0.71875 -1.3125 -0.640625 -1.601562 -0.484375 -1.84375 C -0.335938 -2.09375 -0.148438 -2.285156 0.078125 -2.421875 C 0.316406 -2.554688 0.5625 -2.625 0.8125 -2.625 C 1.15625 -2.625 1.421875 -2.71875 1.609375 -2.90625 C 1.804688 -3.09375 1.953125 -3.445312 2.046875 -3.96875 C 2.148438 -4.5 2.21875 -5.257812 2.25 -6.25 L 2.265625 -7.046875 C 2.285156 -7.535156 2.34375 -7.96875 2.4375 -8.34375 C 2.539062 -8.726562 2.703125 -9.140625 2.921875 -9.578125 C 3.148438 -10.015625 3.46875 -10.550781 3.875 -11.1875 L 4.390625 -11.015625 C 4.328125 -10.691406 4.28125 -10.367188 4.25 -10.046875 C 4.21875 -9.722656 4.1875 -9.394531 4.15625 -9.0625 C 4.050781 -7.832031 3.875 -6.660156 3.625 -5.546875 C 3.382812 -4.429688 3.070312 -3.460938 2.6875 -2.640625 C 2.332031 -1.835938 1.921875 -1.195312 1.453125 -0.71875 C 0.992188 -0.238281 0.507812 0 0 0 Z M 0 0 "/></g></g></g></g></g></svg>